<?xml version="1.0" encoding="iso-8859-1"?>
<!-- Generator: Adobe Illustrator 19.0.0, SVG Export Plug-In . SVG Version: 6.00 Build 0)  -->
<svg version="1.1" id="Capa_1" xmlns="http://www.w3.org/2000/svg" xmlns:xlink="http://www.w3.org/1999/xlink" x="0px" y="0px"
	 viewBox="0 0 511 511" style="enable-background:new 0 0 511 511;" xml:space="preserve">
<path d="M487.5,496H470.31L424.365,21.236C423.193,9.129,413.137,0,400.974,0H110.027C97.864,0,87.808,9.129,86.636,21.236
	L40.691,496H23.5c-4.142,0-7.5,3.358-7.5,7.5s3.358,7.5,7.5,7.5h24.029c0.01,0,0.02,0,0.029,0H71.5c4.142,0,7.5-3.358,7.5-7.5
	s-3.358-7.5-7.5-7.5H55.761L97.664,63H208v218.234c-9.29,3.138-16,11.93-16,22.266V336h-8.5c-4.142,0-7.5,3.358-7.5,7.5
	s3.358,7.5,7.5,7.5h8.5v26.234c-9.29,3.138-16,11.93-16,22.266c0,12.958,10.542,23.5,23.5,23.5h112c12.958,0,23.5-10.542,23.5-23.5
	c0-10.335-6.71-19.127-16-22.266V351h8.5c4.142,0,7.5-3.358,7.5-7.5s-3.358-7.5-7.5-7.5H319v-32.5c0-10.335-6.71-19.127-16-22.266
	V63h110.336l41.903,433H439.5c-4.142,0-7.5,3.358-7.5,7.5s3.358,7.5,7.5,7.5h23.981c0.003,0,0.007,0,0.01,0c0.003,0,0.007,0,0.01,0
	H487.5c4.142,0,7.5-3.358,7.5-7.5S491.642,496,487.5,496z M311.5,408h-112c-4.687,0-8.5-3.813-8.5-8.5s3.813-8.5,8.5-8.5h112
	c4.687,0,8.5,3.813,8.5,8.5S316.187,408,311.5,408z M304,376h-97v-72.5c0-4.687,3.813-8.5,8.5-8.5h80c4.687,0,8.5,3.813,8.5,8.5V376
	z M288,280h-65V63h65V280z M303,48v-8.5c0-4.142-3.358-7.5-7.5-7.5s-7.5,3.358-7.5,7.5V48h-65v-8.5c0-4.142-3.358-7.5-7.5-7.5
	s-7.5,3.358-7.5,7.5V48H99.115l2.45-25.318c0.424-4.379,4.062-7.682,8.461-7.682h290.947c4.399,0,8.037,3.302,8.46,7.681L411.885,48
	H303z"/>
<g>
</g>
<g>
</g>
<g>
</g>
<g>
</g>
<g>
</g>
<g>
</g>
<g>
</g>
<g>
</g>
<g>
</g>
<g>
</g>
<g>
</g>
<g>
</g>
<g>
</g>
<g>
</g>
<g>
</g>
</svg>
